<svg xmlns="http://www.w3.org/2000/svg" viewBox="0 0 1316 310.9"><path fill="#002B4B" d="M239.4 13.7L59.5 271.6h112.3c17.2 0 30.5-3.8 39.7-11.3 9.2-7.6 17.4-22.9 24.5-46l6.7 1.2-12.9 72.9H6.7v-7.6L182.5 29.9H94.9c-14.5 0-25.1 1.6-31.6 4.8-6.5 3.2-11.5 7.8-14.9 13.8-3.4 6-6.6 17.3-9.4 33.7h-7.7l5.8-68.4h202.3zm35.4 146.7h84.7c-.7-11.8-2.1-20.1-4.2-25-3.3-7.5-8.3-13.4-14.9-17.7-6.6-4.3-13.5-6.4-20.7-6.4-11.1 0-20.9 4.3-29.7 13-8.7 8.7-13.8 20.7-15.2 36.1m0 11.7c-.1 27.6 6.5 49.3 19.8 65 13.3 15.7 29 23.6 46.9 23.6 12 0 22.4-3.3 31.3-9.9 8.8-6.6 16.3-18.2 22.3-34.7l6.5 4.1c-2.8 18.9-11 36-24.6 51.3-13.6 15.3-30.6 22.9-51.1 22.9-22.2 0-41.2-8.7-57-26-15.8-17.4-23.7-40.7-23.7-70.1 0-31.8 8.1-56.6 24.3-74.3 16.2-17.8 36.6-26.7 61-26.7 20.7 0 37.7 6.8 51.1 20.4 13.3 13.6 20 31.8 20 54.6H274.8z"/><path fill="#002B4B" d="M455.6 40.2v62h43.2v14.2h-43.2v121.1c0 12.1 1.7 20.2 5.1 24.5 3.4 4.2 7.8 6.3 13.1 6.3 4.4 0 8.7-1.4 12.8-4.1 4.1-2.7 7.3-6.7 9.6-12.1h7.8c-4.7 13.1-11.4 22.9-20 29.5-8.6 6.6-17.5 9.9-26.6 9.9-6.2 0-12.2-1.7-18.2-5.2-5.9-3.5-10.3-8.4-13.1-14.9-2.8-6.4-4.2-16.4-4.2-29.8V116.5h-29.1v-6.7c7.4-3 14.9-8.1 22.6-15.3 7.7-7.2 14.6-15.7 20.7-25.6 3.1-5.2 7.4-14.8 13-28.6h6.5zM611 249v-69.8c-20.4 8-33.5 13.7-39.4 17-10.6 5.9-18.3 12-22.8 18.4-4.6 6.4-6.9 13.4-6.9 21 0 9.6 2.9 17.6 8.7 23.9 5.8 6.4 12.5 9.5 20 9.5 10.2 0 23.7-6.6 40.4-20m0 13c-18.9 14.6-30.8 23-35.7 25.3-7.2 3.3-15 5-23.2 5-12.8 0-23.3-4.4-31.5-13.1-8.3-8.7-12.4-20.2-12.4-34.4 0-9 2-16.8 6.1-23.4 5.5-9.1 15.1-17.7 28.7-25.8 13.6-8.1 36.3-17.8 68-29.4v-7.4c0-18.7-2.9-31.5-8.7-38.4-5.8-6.9-14.3-10.4-25.4-10.4-8.4 0-15.1 2.3-20.1 6.9-5.1 4.6-7.6 10-7.6 15.9l.4 11.8c0 6.3-1.6 11.1-4.8 14.5-3.2 3.4-7.3 5.1-12.5 5.1-5 0-9.1-1.8-12.3-5.3-3.2-3.6-4.8-8.4-4.8-14.6 0-11.8 5.9-22.6 17.8-32.5 11.8-9.9 28.5-14.8 49.9-14.8 16.4 0 29.9 2.8 40.4 8.3 7.9 4.2 13.8 10.7 17.6 19.6 2.4 5.8 3.6 17.7 3.6 35.6v62.8c0 17.7.3 28.5 1 32.4.7 4 1.8 6.6 3.3 8 1.5 1.4 3.3 2 5.3 2 2.1 0 4-.5 5.6-1.4 2.8-1.8 8.3-6.7 16.3-14.8v11.3c-15.1 20.5-29.6 30.7-43.4 30.7-6.6 0-11.9-2.2-15.8-6.7-3.7-4.4-5.7-12-5.8-22.8"/><path fill="#002B4B" d="M823.5 218.8c-5 24.4-14.8 43.1-29.4 56-14.6 12.9-30.7 19.4-48.4 19.4-21.1 0-39.4-8.9-55.1-26.6-15.7-17.7-23.5-41.7-23.5-71.9 0-29.2 8.7-53 26-71.2 17.4-18.3 38.2-27.4 62.6-27.4 18.2 0 33.2 4.9 45 14.6 11.8 9.7 17.7 19.8 17.7 30.2 0 5.2-1.7 9.3-5 12.5-3.3 3.2-7.9 4.8-13.9 4.8-8 0-13.9-2.6-17.7-7.8-2.5-2.9-4.1-8.4-4.9-16.5-.7-8.1-3.5-14.3-8.2-18.6-4.7-4.1-11.3-6.2-19.7-6.2-13.5 0-24.4 5-32.6 15.1-10.9 13.2-16.4 30.8-16.4 52.7 0 22.3 5.4 42 16.3 59 10.9 17.1 25.5 25.6 44 25.6 13.2 0 25.1-4.3 35.6-13 7.4-6.1 14.6-17.3 21.7-33.5l5.9 2.8zM909 110c-7.1 0-14.3 2.1-21.5 6.4-7.2 4.3-13 11.8-17.5 22.5s-6.7 24.5-6.7 41.3c0 27.1 5.4 50.5 16.1 70.2 10.7 19.7 24.8 29.5 42.3 29.5 13.1 0 23.8-5.4 32.3-16.3 8.5-10.9 12.7-29.5 12.7-56 0-33.1-7.1-59.2-21.2-78.2C936 116.5 923.8 110 909 110m6.3-12.9c28 0 50.4 10.7 67.4 32.1 14.4 18.3 21.6 39.3 21.6 62.9 0 16.7-4 33.5-11.9 50.6s-18.9 29.9-32.8 38.6c-13.9 8.6-29.4 13-46.5 13-27.9 0-50-11.2-66.4-33.5-13.8-18.8-20.8-39.9-20.8-63.4 0-17 4.2-34 12.6-50.9 8.4-16.9 19.5-29.3 33.2-37.4 13.7-8 28.2-12 43.6-12"/><path fill="#002B4B" d="M1056.4 136.9c13.5-13.6 21.4-21.4 23.8-23.5 6.1-5.2 12.6-9.2 19.6-12 7-2.9 13.9-4.3 20.8-4.3 11.6 0 21.5 3.4 29.9 10.2 8.3 6.8 13.9 16.6 16.8 29.6 13.9-16.3 25.6-27 35.2-32.1 9.6-5.1 19.4-7.7 29.5-7.7 9.8 0 18.6 2.6 26.2 7.6 7.6 5.1 13.7 13.4 18.1 24.8 3 7.8 4.5 20.2 4.5 36.9v79.9c0 11.7.9 19.7 2.6 24.1 1.3 3 3.8 5.5 7.4 7.7 3.6 2.1 9.5 3.2 17.7 3.2v7.1h-91.1v-7.1h3.8c7.9 0 14.1-1.6 18.5-4.7 3.1-2.2 5.3-5.6 6.6-10.4.5-2.3.8-8.9.8-19.8v-79.8c0-15.1-1.8-25.8-5.5-32-5.2-8.6-13.7-13-25.3-13-7.1 0-14.3 1.8-21.5 5.4-7.2 3.6-15.9 10.2-26.2 20l-.4 2.2.6 8.7v88.5c0 12.8.7 20.8 2.1 23.9 1.4 3.1 4 5.7 7.9 7.9 3.9 2.1 10.4 3.2 19.8 3.2v7.1h-93.1v-7.1c10.1 0 17.1-1.2 20.9-3.7 3.8-2.4 6.4-6.1 7.9-11 .7-2.3 1-9 1-20.2v-79.8c0-15.1-2.2-25.9-6.7-32.4-5.9-8.4-14.2-12.6-24.8-12.6-7.3 0-14.5 1.9-21.6 5.7-11.2 5.8-19.8 12.3-25.8 19.6v99.4c0 12.3.8 20.2 2.5 23.9 1.7 3.7 4.1 6.4 7.4 8.3 3.2 1.8 9.9 2.7 19.9 2.7v7.1H995v-7.1c8.4 0 14.3-.9 17.6-2.7 3.3-1.8 5.9-4.8 7.6-8.8 1.7-4 2.6-11.8 2.6-23.4v-71.1c0-20.5-.6-33.7-1.8-39.7-.9-4.5-2.4-7.6-4.4-9.2-2-1.7-4.8-2.5-8.3-2.5-3.8 0-8.3 1-13.5 3l-3-7.1 55.9-22.6h8.7v39.7z"/></svg>